<svg version="1.1" viewBox="-220 -220 440 440" xmlns="http://www.w3.org/2000/svg"><rect x="-220" y="-220" width="440" height="440" fill="#0d1117" /><circle r="15" cx="-41.58233816355196" cy="-195.6295201467611" fill="#00ff00" stroke="black" data-option="rock" /><text x="-41.58233816355196" y="-193.6295201467611" text-anchor="middle" dominant-baseline="middle" data-option="rock" font-size="19">🪨</text><circle r="15" cx="-117.55705045849464" cy="-161.80339887498945" fill="#ffff00" stroke="black" data-option="fire" /><text x="-117.55705045849464" y="-159.80339887498945" text-anchor="middle" dominant-baseline="middle" data-option="fire" font-size="19">🔥</text><circle r="15" cx="-173.20508075688775" cy="-99.99999999999994" fill="#f0f0f0" stroke="black" data-option="scissors" /><text x="-173.20508075688775" y="-97.99999999999994" text-anchor="middle" dominant-baseline="middle" data-option="scissors" font-size="19">✂</text><circle r="15" cx="-198.90437907365467" cy="-20.90569265353061" fill="#808000" stroke="black" data-option="snake" /><text x="-198.90437907365467" y="-18.90569265353061" text-anchor="middle" dominant-baseline="middle" data-option="snake" font-size="19">🐍</text><circle r="15" cx="-190.2113032590307" cy="61.803398874989504" fill="#800000" stroke="black" data-option="human" /><text x="-190.2113032590307" y="63.803398874989504" text-anchor="middle" dominant-baseline="middle" data-option="human" font-size="19">🙂</text><circle r="15" cx="-148.62896509547883" cy="133.82612127177168" fill="#3cb371" stroke="black" data-option="tree" /><text x="-148.62896509547883" y="135.82612127177168" text-anchor="middle" dominant-baseline="middle" data-option="tree" font-size="19">🌳</text><circle r="15" cx="-81.34732861516002" cy="182.7090915285202" fill="#a52a2a" stroke="black" data-option="wolf" /><text x="-81.34732861516002" y="184.7090915285202" text-anchor="middle" dominant-baseline="middle" data-option="wolf" font-size="19">🐺</text><circle r="15" cx="1.2246467991473532e-14" cy="200.0" fill="#fa8072" stroke="black" data-option="sponge" /><text x="1.2246467991473532e-14" y="202.0" text-anchor="middle" dominant-baseline="middle" data-option="sponge" font-size="19">🧽</text><circle r="15" cx="81.34732861516004" cy="182.70909152852016" fill="#ff00ff" stroke="black" data-option="paper" /><text x="81.34732861516004" y="184.70909152852016" text-anchor="middle" dominant-baseline="middle" data-option="paper" font-size="19">📰</text><circle r="15" cx="148.62896509547886" cy="133.82612127177165" fill="#87ceeb" stroke="black" data-option="air" /><text x="148.62896509547886" y="135.82612127177165" text-anchor="middle" dominant-baseline="middle" data-option="air" font-size="19">🌀</text><circle r="15" cx="190.2113032590307" cy="61.803398874989476" fill="#0000ff" stroke="black" data-option="water" /><text x="190.2113032590307" y="63.803398874989476" text-anchor="middle" dominant-baseline="middle" data-option="water" font-size="19">💧</text><circle r="15" cx="198.90437907365467" cy="-20.90569265353068" fill="#ff0000" stroke="black" data-option="dragon" /><text x="198.90437907365467" y="-18.90569265353068" text-anchor="middle" dominant-baseline="middle" data-option="dragon" font-size="19">🐉</text><circle r="15" cx="173.20508075688775" cy="-99.99999999999997" fill="#800080" stroke="black" data-option="devil" /><text x="173.20508075688775" y="-97.99999999999997" text-anchor="middle" dominant-baseline="middle" data-option="devil" font-size="19">😈</text><circle r="15" cx="117.55705045849463" cy="-161.80339887498948" fill="#dda0dd" stroke="black" data-option="lightning" /><text x="117.55705045849463" y="-159.80339887498948" text-anchor="middle" dominant-baseline="middle" data-option="lightning" font-size="19">⚡</text><circle r="15" cx="41.58233816355194" cy="-195.6295201467611" fill="#808080" stroke="black" data-option="gun" /><text x="41.58233816355194" y="-193.6295201467611" text-anchor="middle" dominant-baseline="middle" data-option="gun" font-size="19">🔫</text><path d="M -55.28552002819097 -189.5284705006241 L -99.28614130564263 -169.93813173650545" stroke="#00ff00" data-option="rock" /><path d="M -103.85386859385564 -167.90444852112645 L -100.09961459179424 -171.76522265179065 L -98.47266801949104 -168.11104082122026 Z" fill="#00ff00" data-option="rock" /><path d="M -53.71759307917617 -186.812741362374 L -157.0247408693888 -111.75570504584941" stroke="#00ff00" data-option="rock" /><path d="M -161.06982584126354 -108.81677878438704 L -158.20031137397376 -113.3737390345993 L -155.84917036480385 -110.13767105709951 Z" fill="#00ff00" data-option="rock" /><path d="M -51.61929725893483 -184.4823477646002 L -185.5217669464775 -35.7685891630785" stroke="#00ff00" data-option="rock" /><path d="M -188.8674199782718 -32.052865035691525 L -187.0080565974323 -37.10685037579621 L -184.03547729552272 -34.430327950360784 Z" fill="#00ff00" data-option="rock" /><path d="M -49.08233816355195 -182.63913908999453 L -180.2113032590307 44.482890799300726" stroke="#00ff00" data-option="rock" /><path d="M -182.7113032590307 48.813017818222924 L -181.94335406659957 43.48289079930073 L -178.47925245146183 45.482890799300726 Z" fill="#00ff00" data-option="rock" /><path d="M -46.21759307917617 -181.3636724023338 L -142.4486252079799 114.80499094586861" stroke="#00ff00" data-option="rock" /><path d="M -143.99371017985462 119.56027352734438 L -144.3507382405702 114.18695695711871 L -140.54651217538958 115.42302493461851 Z" fill="#00ff00" data-option="rock" /><path d="M -43.15026511256676 -180.711691716237 L -79.25675934980696 162.81865362115474" stroke="#00ff00" data-option="rock" /><path d="M -79.77940166614522 167.79126309799608 L -81.2458031405435 162.6095966946194 L -77.26771555907041 163.02771054769002 Z" fill="#00ff00" data-option="rock" /><path d="M -40.014411214537155 -180.711691716237 L -2.090569265353063 180.10956209263452" stroke="#00ff00" data-option="rock" /><path d="M -1.5679269490147945 185.0821715694759 L -4.07961305608961 180.31861901916983 L -0.10152547461651662 179.9005051660992 Z" fill="#00ff00" data-option="rock" /><path d="M -127.59400955387751 -150.65622649282855 L -159.82246862971058 -114.86289650954782" stroke="#ffff00" data-option="fire" /><path d="M -163.16812166150487 -111.14717238216086 L -161.30875828066536 -116.20115772226555 L -158.33617897875578 -113.52463529683011 Z" fill="#ffff00" data-option="fire" /><path d="M -125.05705045849464 -148.81301781822287 L -188.90437907365467 -38.226200729219386" stroke="#ffff00" data-option="fire" /><path d="M -191.40437907365467 -33.896073710297195 L -190.63642988122353 -39.226200729219386 L -187.1723282660858 -37.22620072921939 Z" fill="#ffff00" data-option="fire" /><path d="M -122.19230537411886 -147.53755113056215 L -184.03096337153175 42.78226854908643" stroke="#ffff00" data-option="fire" /><path d="M -185.57604834340648 47.5375511305622 L -185.93307640412206 42.16423456033654 L -182.12885033894145 43.400302537836325 Z" fill="#ffff00" data-option="fire" /><path d="M -119.12497740750945 -146.88557044446534 L -146.53839583012575 113.93568336440622" stroke="#ffff00" data-option="fire" /><path d="M -147.06103814646403 118.90829284124759 L -148.5274396208623 113.72662643787092 L -144.54935203938922 114.14474029094153 Z" fill="#ffff00" data-option="fire" /><path d="M -115.98912350947984 -146.88557044446534 L -83.43789788051309 162.81865362115474" stroke="#ffff00" data-option="fire" /><path d="M -82.91525556417483 167.79126309799608 L -85.42694167124964 163.02771054769002 L -81.44885408977655 162.6095966946194 Z" fill="#ffff00" data-option="fire" /><path d="M -112.92179554287043 -147.53755113056215 L -6.180339887498938 180.97886967409693" stroke="#ffff00" data-option="fire" /><path d="M -4.635254915624201 185.7341522555727 L -8.082452920089246 181.5969036628468 L -4.278226854908632 180.36083568534704 Z" fill="#ffff00" data-option="fire" /><path d="M -110.05705045849464 -148.81301781822287 L 71.34732861516004 165.3885834528314" stroke="#ffff00" data-option="fire" /><path d="M 73.84732861516004 169.71871047175358 L 69.61527780759116 166.3885834528314 L 73.07937942272892 164.3885834528314 Z" fill="#ffff00" data-option="fire" /><path d="M -177.84033567251197 -85.73415225557264 L -192.72403918615572 -39.92682297943368" stroke="#f0f0f0" data-option="scissors" /><path d="M -194.26912415803045 -35.17154039795791 L -194.62615221874603 -40.54485696818357 L -190.8219261535654 -39.30878899068379 Z" fill="#f0f0f0" data-option="scissors" /><path d="M -174.77300770590256 -85.08217156947585 L -188.12073399367765 41.91296096762404" stroke="#f0f0f0" data-option="scissors" /><path d="M -188.6433763100159 46.8855704444654 L -190.10977778441418 41.70390404108873 L -186.1316902029411 42.12201789415934 Z" fill="#f0f0f0" data-option="scissors" /><path d="M -171.63715380787295 -85.08217156947585 L -150.71953436083191 113.93568336440622" stroke="#f0f0f0" data-option="scissors" /><path d="M -150.19689204449364 118.90829284124759 L -152.70857815156845 114.14474029094153 L -148.73049057009536 113.72662643787092 Z" fill="#f0f0f0" data-option="scissors" /><path d="M -168.56982584126354 -85.73415225557264 L -87.52766850265897 163.68796120261712" stroke="#f0f0f0" data-option="scissors" /><path d="M -85.98258353078424 168.44324378409289 L -89.42978153524929 164.305995191367 L -85.62555547006868 163.06992721386723 Z" fill="#f0f0f0" data-option="scissors" /><path d="M -165.70508075688775 -87.00961894323336 L -9.999999999999991 182.67949192431124" stroke="#f0f0f0" data-option="scissors" /><path d="M -7.499999999999991 187.00961894323342 L -11.73205080756887 183.67949192431124 L -8.267949192431114 181.67949192431124 Z" fill="#f0f0f0" data-option="scissors" /><path d="M -163.16812166150487 -88.85282761783903 L 67.96471648798287 167.84619501897228" stroke="#f0f0f0" data-option="scissors" /><path d="M 71.31036951977717 171.56191914635926 L 66.47842683702808 169.18445623169 L 69.45100613893767 166.50793380625458 Z" fill="#f0f0f0" data-option="scissors" /><path d="M -161.06982584126354 -91.18322121561285 L 132.44862520797992 122.0704162259222" stroke="#f0f0f0" data-option="scissors" /><path d="M 136.49371017985465 125.00934248738456 L 131.27305470339496 123.68845021467209 L 133.62419571256484 120.4523822371723 Z" fill="#f0f0f0" data-option="scissors" /><path d="M -197.33645212463986 -5.987864223006511 L -192.30187252438378 41.91296096762404" stroke="#808000" data-option="snake" /><path d="M -191.7792302080455 46.8855704444654 L -194.2909163151203 42.12201789415934 L -190.31282873364722 41.70390404108873 Z" fill="#808000" data-option="snake" /><path d="M -194.26912415803045 -6.639844909103308 L -154.80930498297778 114.80499094586861" stroke="#808000" data-option="snake" /><path d="M -153.26422001110305 119.56027352734438 L -156.71141801556809 115.42302493461851 L -152.90719195038747 114.18695695711871 Z" fill="#808000" data-option="snake" /><path d="M -191.40437907365467 -7.915311596764033 L -91.34732861516002 165.38858345283143" stroke="#808000" data-option="snake" /><path d="M -88.84732861516002 169.7187104717536 L -93.0793794227289 166.38858345283143 L -89.61527780759114 164.38858345283143 Z" fill="#808000" data-option="snake" /><path d="M -188.86741997827178 -9.758520271369697 L -13.382612127177152 185.13710349045212" stroke="#808000" data-option="snake" /><path d="M -10.03695909538286 188.8528276178391 L -14.86890177813194 186.47536470316984 L -11.896322476222362 183.79884227773442 Z" fill="#808000" data-option="snake" /><path d="M -186.76912415803045 -12.08891386914352 L 65.16698872766108 170.9533864826707" stroke="#808000" data-option="snake" /><path d="M 69.21207369953582 173.89231274413308 L 63.99141822307614 172.57142047142062 L 66.34255923224603 169.33535249392082 Z" fill="#808000" data-option="snake" /><path d="M -185.20119720901565 -14.804643007393611 L 130.35805594262683 125.69138841025566" stroke="#808000" data-option="snake" /><path d="M 134.92578323083984 127.72507162563465 L 129.54458265647523 127.51847932554085 L 131.17152922877844 123.86429749497046 Z" fill="#808000" data-option="snake" /><path d="M -184.2321650626476 -17.78701729126422 L 170.6483512443546 57.64516505863429" stroke="#808000" data-option="snake" /><path d="M 175.53908924802363 58.68472351272309 L 170.23252786271908 59.6014602601019 L 171.06417462599012 55.68886985716668 Z" fill="#808000" data-option="snake" /><path d="M -182.7113032590307 74.79377993175609 L -158.62896509547883 116.5056131960829" stroke="#800000" data-option="human" /><path d="M -156.12896509547883 120.8357402150051 L -160.3610159030477 117.5056131960829 L -156.89691428790996 115.5056131960829 Z" fill="#800000" data-option="human" /><path d="M -180.17434416364782 72.95057125715041 L -94.72994074233719 167.8461950189723" stroke="#800000" data-option="human" /><path d="M -91.38428771054289 171.5619191463593 L -96.21623039329197 169.18445623169004 L -93.24365109138239 166.5079338062546 Z" fill="#800000" data-option="human" /><path d="M -178.07604834340648 70.62017765937661 L -16.180339887498935 188.24429495415055" stroke="#800000" data-option="human" /><path d="M -12.135254915624198 191.1832212156129 L -17.35591039208388 189.8623289429004 L -15.004769382913988 186.62626096540063 Z" fill="#800000" data-option="human" /><path d="M -176.50812139439168 67.90444852112651 L 63.07641946230802 174.57435866700416" stroke="#800000" data-option="human" /><path d="M 67.64414675052102 176.60804188238316 L 62.26294617615641 176.40144958228936 L 63.889892748459616 172.74726775171897 Z" fill="#800000" data-option="human" /><path d="M -175.53908924802363 64.9220742372559 L 129.06601308080275 129.66788745541646" stroke="#800000" data-option="human" /><path d="M 133.95675108447176 130.70744590950525 L 128.6501896991672 131.62418265688407 L 129.48183646243825 127.71159225394885 Z" fill="#800000" data-option="human" /><path d="M -175.2113032590307 61.803398874989504 L 170.2113032590307 61.803398874989476" stroke="#800000" data-option="human" /><path d="M 175.2113032590307 61.803398874989476 L 170.2113032590307 63.803398874989476 L 170.2113032590307 59.803398874989476 Z" fill="#800000" data-option="human" /><path d="M -175.53908924802363 58.68472351272312 L 179.34142705897855 -16.747458837175493" stroke="#800000" data-option="human" /><path d="M 184.2321650626476 -17.787017291264288 L 179.7572504406141 -14.79116363570788 L 178.92560367734305 -18.7037540386431 Z" fill="#800000" data-option="human" /><path d="M -136.49371017985462 142.64290005615877 L -97.52766850265897 170.95338648267074" stroke="#3cb371" data-option="tree" /><path d="M -93.48258353078424 173.8923127441331 L -98.70323900724392 172.57142047142065 L -96.35209799807403 169.33535249392085 Z" fill="#3cb371" data-option="tree" /><path d="M -134.9257832308398 139.92717091790868 L -18.27090915285201 191.865267138484" stroke="#3cb371" data-option="tree" /><path d="M -13.703181864639003 193.898950353863 L -19.08438243900361 193.6923580537692 L -17.457435866700408 190.0381762231988 Z" fill="#3cb371" data-option="tree" /><path d="M -133.95675108447176 136.94479663403808 L 61.784376600483924 178.55085771216497" stroke="#3cb371" data-option="tree" /><path d="M 66.67511460415295 179.59041616625376 L 61.368553218848405 180.50715291363258 L 62.20019998211944 176.59456251069736 Z" fill="#3cb371" data-option="tree" /><path d="M -133.62896509547883 133.82612127177168 L 128.62896509547886 133.82612127177165" stroke="#3cb371" data-option="tree" /><path d="M 133.62896509547886 133.82612127177165 L 128.62896509547886 135.82612127177165 L 128.62896509547886 131.82612127177165 Z" fill="#3cb371" data-option="tree" /><path d="M -133.95675108447176 130.70744590950528 L 170.6483512443546 65.96163269134466" stroke="#3cb371" data-option="tree" /><path d="M 175.53908924802363 64.92207423725587 L 171.06417462599012 67.91792789281227 L 170.23252786271908 64.00533748987705 Z" fill="#3cb371" data-option="tree" /><path d="M -134.9257832308398 127.72507162563468 L 180.63346992080267 -12.77095979201467" stroke="#3cb371" data-option="tree" /><path d="M 185.20119720901565 -14.804643007393672 L 181.44694320695424 -10.943868876729468 L 179.81999663465103 -14.59805070729987 Z" fill="#3cb371" data-option="tree" /><path d="M -136.49371017985462 125.00934248738459 L 157.0247408693888 -88.2442949541505" stroke="#3cb371" data-option="tree" /><path d="M 161.06982584126354 -91.18322121561287 L 158.20031137397376 -86.62626096540062 L 155.84917036480385 -89.8623289429004 Z" fill="#3cb371" data-option="tree" /><path d="M -66.67511460415294 185.8277668907866 L -19.562952014676103 195.8417661836448" stroke="#a52a2a" data-option="wolf" /><path d="M -14.672214011007073 196.8813246377336 L -19.97877539631162 197.79806138511242 L -19.147128633040584 193.8854709821772 Z" fill="#a52a2a" data-option="wolf" /><path d="M -66.34732861516002 182.7090915285202 L 61.34732861516004 182.70909152852016" stroke="#a52a2a" data-option="wolf" /><path d="M 66.34732861516004 182.70909152852016 L 61.34732861516004 184.70909152852016 L 61.34732861516004 180.70909152852016 Z" fill="#a52a2a" data-option="wolf" /><path d="M -66.67511460415294 179.5904161662538 L 129.06601308080275 137.98435508812685" stroke="#a52a2a" data-option="wolf" /><path d="M 133.95675108447176 136.94479663403806 L 129.48183646243825 139.94065028959446 L 128.6501896991672 136.02805988665924 Z" fill="#a52a2a" data-option="wolf" /><path d="M -67.64414675052102 176.6080418823832 L 171.9403941061787 69.93813173650548" stroke="#a52a2a" data-option="wolf" /><path d="M 176.50812139439168 67.90444852112648 L 172.75386739233028 71.76522265179068 L 171.12692082002707 68.11104082122029 Z" fill="#a52a2a" data-option="wolf" /><path d="M -69.21207369953581 173.89231274413308 L 182.72403918615572 -9.149987607681213" stroke="#a52a2a" data-option="wolf" /><path d="M 186.76912415803045 -12.08891386914358 L 183.89960969074065 -7.531953618931319 L 181.54846868157077 -10.768021596431108 Z" fill="#a52a2a" data-option="wolf" /><path d="M -71.31036951977715 171.5619191463593 L 159.82246862971058 -85.13710349045209" stroke="#a52a2a" data-option="wolf" /><path d="M 163.16812166150487 -88.85282761783905 L 161.30875828066536 -83.79884227773437 L 158.33617897875578 -86.4753647031698 Z" fill="#a52a2a" data-option="wolf" /><path d="M -73.84732861516002 169.7187104717536 L 107.55705045849463 -144.48289079930072" stroke="#a52a2a" data-option="wolf" /><path d="M 110.05705045849463 -148.8130178182229 L 109.28910126606351 -143.48289079930072 L 105.82499965092575 -145.48289079930072 Z" fill="#a52a2a" data-option="wolf" /><path d="M 14.672214011007096 196.8813246377336 L 61.784376600483924 186.86732534487535" stroke="#fa8072" data-option="sponge" /><path d="M 66.67511460415295 185.82776689078656 L 62.20019998211944 188.82362054634297 L 61.368553218848405 184.91103014340774 Z" fill="#fa8072" data-option="sponge" /><path d="M 13.703181864639028 193.898950353863 L 130.35805594262683 141.96085413328765" stroke="#fa8072" data-option="sponge" /><path d="M 134.92578323083984 139.92717091790865 L 131.17152922877844 143.78794504857285 L 129.54458265647523 140.13376321800246 Z" fill="#fa8072" data-option="sponge" /><path d="M 12.135254915624223 191.1832212156129 L 174.03096337153175 73.55910392083894" stroke="#fa8072" data-option="sponge" /><path d="M 178.07604834340648 70.62017765937658 L 175.20653387611668 75.17713790958884 L 172.8553928669468 71.94106993208905 Z" fill="#fa8072" data-option="sponge" /><path d="M 10.036959095382885 188.8528276178391 L 185.5217669464775 -6.042796143982795" stroke="#fa8072" data-option="sponge" /><path d="M 188.86741997827178 -9.758520271369765 L 187.00805659743227 -4.704534931265077 L 184.0354772955227 -7.38105735670051 Z" fill="#fa8072" data-option="sponge" /><path d="M 7.500000000000016 187.00961894323342 L 163.20508075688775 -82.67949192431121" stroke="#fa8072" data-option="sponge" /><path d="M 165.70508075688775 -87.00961894323339 L 164.93713156445662 -81.6794919243112 L 161.47302994931889 -83.6794919243112 Z" fill="#fa8072" data-option="sponge" /><path d="M 4.635254915624222 185.7341522555727 L 111.37671057099568 -142.7822685490864" stroke="#fa8072" data-option="sponge" /><path d="M 112.92179554287041 -147.53755113056218 L 113.27882360358598 -142.16423456033652 L 109.47459753840536 -143.4003025378363 Z" fill="#fa8072" data-option="sponge" /><path d="M 1.5679269490148156 185.0821715694759 L 39.49176889819887 -175.73908223939566" stroke="#fa8072" data-option="sponge" /><path d="M 40.014411214537134 -180.711691716237 L 41.480812688935416 -175.53002531286032 L 37.50272510746232 -175.94813916593094 Z" fill="#fa8072" data-option="sponge" /><path d="M 76.71207369953582 168.44324378409286 L -35.40199827605301 -176.60838982085804" stroke="#ff00ff" data-option="paper" /><path d="M -36.94708324792774 -181.3636724023338 L -33.4998852434627 -177.22642380960792 L -37.304111308643314 -175.99035583210815 Z" fill="#ff00ff" data-option="paper" /><path d="M 93.48258353078425 173.89231274413308 L 132.44862520797992 145.5818263176211" stroke="#ff00ff" data-option="paper" /><path d="M 136.49371017985465 142.64290005615874 L 133.62419571256484 147.199860306371 L 131.27305470339496 143.9637923288712 Z" fill="#ff00ff" data-option="paper" /><path d="M 91.3842877105429 171.56191914635926 L 176.82869113185353 76.66629538453736" stroke="#ff00ff" data-option="paper" /><path d="M 180.17434416364782 72.95057125715039 L 178.3149807828083 78.00455659725507 L 175.34240148089873 75.32803417181964 Z" fill="#ff00ff" data-option="paper" /><path d="M 88.84732861516004 169.71871047175358 L 188.90437907365467 -3.5851845778419076" stroke="#ff00ff" data-option="paper" /><path d="M 191.40437907365467 -7.9153115967641 L 190.63642988122353 -2.5851845778419076 L 187.1723282660858 -4.585184577841908 Z" fill="#ff00ff" data-option="paper" /><path d="M 85.98258353078425 168.44324378409286 L 167.0247408693888 -80.9788696740969" stroke="#ff00ff" data-option="paper" /><path d="M 168.56982584126354 -85.73415225557267 L 168.92685390197911 -80.360835685347 L 165.1226278367985 -81.5969036628468 Z" fill="#ff00ff" data-option="paper" /><path d="M 82.91525556417484 167.79126309799605 L 115.46648119314156 -141.91296096762403" stroke="#ff00ff" data-option="paper" /><path d="M 115.98912350947982 -146.88557044446537 L 117.4555249838781 -141.7039040410887 L 113.47743740240502 -142.1220178941593 Z" fill="#ff00ff" data-option="paper" /><path d="M 79.77940166614523 167.79126309799605 L 43.672907428905006 -175.73908223939566" stroke="#ff00ff" data-option="paper" /><path d="M 43.150265112566736 -180.711691716237 L 45.66195121964155 -175.94813916593094 L 41.683863638168454 -175.53002531286032 Z" fill="#ff00ff" data-option="paper" /><path d="M 141.12896509547886 120.83574021500507 L -31.582338163551952 -178.30901207107235" stroke="#87ceeb" data-option="air" /><path d="M -34.08233816355195 -182.63913908999453 L -29.850287355983074 -179.30901207107235 L -33.31438897112083 -177.30901207107235 Z" fill="#87ceeb" data-option="air" /><path d="M 138.59200600009598 122.67894888961074 L -104.17443833131748 -146.94050236544157" stroke="#87ceeb" data-option="air" /><path d="M -107.52009136311177 -150.65622649282855 L -102.6881486803627 -148.2787635781593 L -105.66072798227228 -145.60224115272388 Z" fill="#87ceeb" data-option="air" /><path d="M 156.12896509547886 120.83574021500507 L 180.2113032590307 79.12390695067825" stroke="#87ceeb" data-option="air" /><path d="M 182.7113032590307 74.79377993175606 L 181.94335406659957 80.12390695067826 L 178.47925245146183 78.12390695067826 Z" fill="#87ceeb" data-option="air" /><path d="M 153.26422001110308 119.56027352734435 L 192.72403918615572 -1.8845623276276058" stroke="#87ceeb" data-option="air" /><path d="M 194.26912415803045 -6.639844909103374 L 194.62615221874603 -1.2665283388777109 L 190.8219261535654 -2.5025963163775007 Z" fill="#87ceeb" data-option="air" /><path d="M 150.19689204449367 118.90829284124756 L 171.11451149153467 -80.1095620926345" stroke="#87ceeb" data-option="air" /><path d="M 171.63715380787295 -85.08217156947588 L 173.10355528227123 -79.90050516609921 L 169.12546770079814 -80.31861901916982 Z" fill="#87ceeb" data-option="air" /><path d="M 147.06103814646406 118.90829284124756 L 119.6476197238477 -141.91296096762403" stroke="#87ceeb" data-option="air" /><path d="M 119.12497740750943 -146.88557044446537 L 121.63666351458424 -142.1220178941593 L 117.65857593311115 -141.7039040410887 Z" fill="#87ceeb" data-option="air" /><path d="M 143.99371017985465 119.56027352734435 L 47.762678051050884 -176.60838982085804" stroke="#87ceeb" data-option="air" /><path d="M 46.21759307917615 -181.3636724023338 L 49.66479108364119 -177.22642380960792 L 45.860565018460576 -175.99035583210815 Z" fill="#87ceeb" data-option="air" /><path d="M 180.17434416364782 50.656226492828566 L -28.19972603637479 -180.76662363721323" stroke="#0000ff" data-option="water" /><path d="M -31.545379068169083 -184.4823477646002 L -26.713436385420003 -182.10488484993095 L -29.68601568732958 -179.42836242449553 Z" fill="#0000ff" data-option="water" /><path d="M 178.07604834340648 52.98662009060238 L -101.3767105709957 -150.04769382914" stroke="#0000ff" data-option="water" /><path d="M -105.42179554287043 -152.98662009060234 L -100.20114006641074 -151.66572781788986 L -102.55228107558064 -148.4296598403901 Z" fill="#0000ff" data-option="water" /><path d="M 176.50812139439168 55.702349228852476 L -154.93417160403573 -91.86526713848394" stroke="#0000ff" data-option="water" /><path d="M -159.50189889224873 -93.89895035386294 L -154.12069831788412 -93.69235805376914 L -155.74764489018733 -90.03817622319875 Z" fill="#0000ff" data-option="water" /><path d="M 191.7792302080455 46.88557044446537 L 196.81380980830158 -1.015254746165212" stroke="#0000ff" data-option="water" /><path d="M 197.33645212463986 -5.987864223006579 L 198.80285359903814 -0.8061978196299044 L 194.82476601756505 -1.2243116727005194 Z" fill="#0000ff" data-option="water" /><path d="M 188.6433763100159 46.88557044446537 L 175.2956500222408 -80.1095620926345" stroke="#0000ff" data-option="water" /><path d="M 174.77300770590256 -85.08217156947588 L 177.28469381297737 -80.31861901916982 L 173.30660623150428 -79.90050516609921 Z" fill="#0000ff" data-option="water" /><path d="M 185.57604834340648 47.53755113056217 L 123.73739034599357 -142.7822685490864" stroke="#0000ff" data-option="water" /><path d="M 122.19230537411883 -147.53755113056218 L 125.63950337858387 -143.4003025378363 L 121.83527731340325 -142.16423456033652 Z" fill="#0000ff" data-option="water" /><path d="M 182.7113032590307 48.813017818222896 L 51.58233816355193 -178.30901207107235" stroke="#0000ff" data-option="water" /><path d="M 49.08233816355193 -182.63913908999453 L 53.314388971120806 -179.30901207107235 L 49.85028735598305 -177.30901207107235 Z" fill="#0000ff" data-option="water" /><path d="M 186.76912415803045 -29.722471437917775 L -25.40199827605301 -183.87381510091166" stroke="#ff0000" data-option="dragon" /><path d="M -29.447083247927747 -186.81274136237403 L -24.226427771468064 -185.49184908966157 L -26.577568780637954 -182.25578111216177 Z" fill="#ff0000" data-option="dragon" /><path d="M 185.20119720901565 -27.006742299667682 L -99.28614130564263 -153.66866601347346" stroke="#ff0000" data-option="dragon" /><path d="M -103.85386859385562 -155.70234922885246 L -98.47266801949102 -155.49575692875865 L -100.09961459179422 -151.84157509818826 Z" fill="#ff0000" data-option="dragon" /><path d="M 184.2321650626476 -24.024368015797066 L -153.64212874221164 -95.84176618364476" stroke="#ff0000" data-option="dragon" /><path d="M -158.53286674588065 -96.88132463773356 L -153.2263053605761 -97.79806138511238 L -154.05795212384714 -93.88547098217715 Z" fill="#ff0000" data-option="dragon" /><path d="M 183.90437907365467 -20.905692653530675 L -178.90437907365467 -20.905692653530615" stroke="#ff0000" data-option="dragon" /><path d="M -183.90437907365467 -20.905692653530615 L -178.90437907365467 -22.905692653530615 L -178.90437907365467 -18.905692653530615 Z" fill="#ff0000" data-option="dragon" /><path d="M 194.26912415803045 -35.17154039795798 L 179.3854206443867 -80.9788696740969" stroke="#ff0000" data-option="dragon" /><path d="M 177.84033567251197 -85.73415225557267 L 181.287533676977 -81.5969036628468 L 177.4833076117964 -80.360835685347 Z" fill="#ff0000" data-option="dragon" /><path d="M 191.40437907365467 -33.89607371029726 L 127.55705045849463 -144.48289079930072" stroke="#ff0000" data-option="dragon" /><path d="M 125.05705045849463 -148.8130178182229 L 129.2891012660635 -145.48289079930072 L 125.82499965092575 -143.48289079930072 Z" fill="#ff0000" data-option="dragon" /><path d="M 188.86741997827178 -32.052865035691596 L 54.9649502907291 -180.76662363721323" stroke="#ff0000" data-option="dragon" /><path d="M 51.61929725893481 -184.4823477646002 L 56.45123994168389 -182.10488484993095 L 53.47866063977431 -179.4283624244955 Z" fill="#ff0000" data-option="dragon" /><path d="M 159.50189889224873 -106.10104964613697 L -23.31142901069994 -187.4947872852451" stroke="#800080" data-option="devil" /><path d="M -27.879156298912946 -189.5284705006241 L -22.49795572454834 -189.3218782005303 L -24.12490229685154 -185.6676963699599 Z" fill="#800080" data-option="devil" /><path d="M 158.53286674588065 -103.11867536226636 L -97.99409844381853 -157.64516505863426" stroke="#800080" data-option="devil" /><path d="M -102.88483644748756 -158.68472351272305 L -97.57827506218301 -159.60146026010187 L -98.40992182545405 -155.68886985716665 Z" fill="#800080" data-option="devil" /><path d="M 158.20508075688775 -99.99999999999997 L -153.20508075688775 -99.99999999999994" stroke="#800080" data-option="devil" /><path d="M -158.20508075688775 -99.99999999999994 L -153.20508075688775 -101.99999999999994 L -153.20508075688775 -97.99999999999994 Z" fill="#800080" data-option="devil" /><path d="M 158.53286674588068 -96.88132463773358 L -179.34142705897855 -25.0639264698858" stroke="#800080" data-option="devil" /><path d="M -184.2321650626476 -24.024368015797002 L -179.7572504406141 -27.02022167135341 L -178.92560367734305 -23.10763126841819 Z" fill="#800080" data-option="devil" /><path d="M 159.50189889224873 -93.89895035386297 L -171.94039410617867 53.6686660134735" stroke="#800080" data-option="devil" /><path d="M -176.50812139439168 55.7023492288525 L -172.75386739233028 51.841575098188294 L -171.12692082002707 55.495756928758695 Z" fill="#800080" data-option="devil" /><path d="M 163.16812166150487 -111.14717238216089 L 130.93966258567178 -146.9405023654416" stroke="#800080" data-option="devil" /><path d="M 127.5940095538775 -150.65622649282858 L 132.42595223662659 -148.27876357815933 L 129.453372934717 -145.6022411527239 Z" fill="#800080" data-option="devil" /><path d="M 161.06982584126354 -108.81677878438707 L 57.762678051050884 -183.87381510091166" stroke="#800080" data-option="devil" /><path d="M 53.71759307917615 -186.812741362374 L 58.93824855563583 -185.4918490896615 L 56.58710754646594 -182.25578111216174 Z" fill="#800080" data-option="devil" /><path d="M 102.88483644748754 -164.92207423725586 L -22.019386148875846 -191.47128633040592" stroke="#dda0dd" data-option="lightning" /><path d="M -26.910124152544874 -192.51084478449474 L -21.603562767240327 -193.42758153187356 L -22.435209530511365 -189.51499112893833 Z" fill="#dda0dd" data-option="lightning" /><path d="M 102.55705045849463 -161.80339887498948 L -97.55705045849464 -161.80339887498945" stroke="#dda0dd" data-option="lightning" /><path d="M -102.55705045849464 -161.80339887498945 L -97.55705045849464 -163.80339887498945 L -97.55705045849464 -159.80339887498945 Z" fill="#dda0dd" data-option="lightning" /><path d="M 102.88483644748754 -158.68472351272308 L -153.64212874221164 -104.15823381635514" stroke="#dda0dd" data-option="lightning" /><path d="M -158.53286674588068 -103.11867536226633 L -154.05795212384717 -106.11452901782273 L -153.22630536057613 -102.20193861488751 Z" fill="#dda0dd" data-option="lightning" /><path d="M 103.85386859385562 -155.70234922885248 L -180.63346992080264 -29.040425515046618" stroke="#dda0dd" data-option="lightning" /><path d="M -185.20119720901565 -27.006742299667618 L -181.44694320695424 -30.867516430331822 L -179.81999663465103 -27.213334599761417 Z" fill="#dda0dd" data-option="lightning" /><path d="M 105.42179554287041 -152.98662009060237 L -174.03096337153175 50.04769382914004" stroke="#dda0dd" data-option="lightning" /><path d="M -178.07604834340648 52.98662009060241 L -175.20653387611668 48.429659840390144 L -172.8553928669468 51.66572781788994 Z" fill="#dda0dd" data-option="lightning" /><path d="M 107.52009136311176 -150.65622649282858 L -135.24635296830166 118.9632247622238" stroke="#dda0dd" data-option="lightning" /><path d="M -138.59200600009595 122.67894888961077 L -136.73264261925644 117.62496354950608 L -133.76006331734686 120.30148597494151 Z" fill="#dda0dd" data-option="lightning" /><path d="M 103.85386859385562 -167.90444852112648 L 59.85324731640395 -187.4947872852451" stroke="#dda0dd" data-option="lightning" /><path d="M 55.28552002819095 -189.5284705006241 L 60.66672060255556 -189.3218782005303 L 59.03977403025235 -185.6676963699599 Z" fill="#dda0dd" data-option="lightning" /><path d="M 26.58233816355194 -195.6295201467611 L -21.58233816355196 -195.6295201467611" stroke="#808080" data-option="gun" /><path d="M -26.58233816355196 -195.6295201467611 L -21.58233816355196 -197.6295201467611 L -21.58233816355196 -193.6295201467611 Z" fill="#808080" data-option="gun" /><path d="M 26.910124152544853 -192.5108447844947 L -97.99409844381853 -165.96163269134465" stroke="#808080" data-option="gun" /><path d="M -102.88483644748756 -164.92207423725586 L -98.40992182545405 -167.91792789281226 L -97.57827506218301 -164.00533748987704 Z" fill="#808080" data-option="gun" /><path d="M 27.879156298912925 -189.5284705006241 L -154.93417160403573 -108.13473286151594" stroke="#808080" data-option="gun" /><path d="M -159.50189889224873 -106.10104964613694 L -155.74764489018733 -109.96182377680114 L -154.12069831788412 -106.30764194623075 Z" fill="#808080" data-option="gun" /><path d="M 29.447083247927726 -186.81274136237403 L -182.72403918615572 -32.661397699380075" stroke="#808080" data-option="gun" /><path d="M -186.76912415803045 -29.722471437917708 L -183.89960969074065 -34.27943168812997 L -181.54846868157077 -31.043363710630178 Z" fill="#808080" data-option="gun" /><path d="M 31.545379068169062 -184.4823477646002 L -176.82869113185353 46.940502365441624" stroke="#808080" data-option="gun" /><path d="M -180.17434416364782 50.656226492828594 L -178.3149807828083 45.602241152723906 L -175.34240148089873 48.27876357815934 Z" fill="#808080" data-option="gun" /><path d="M 34.08233816355194 -182.63913908999453 L -138.62896509547883 116.50561319608292" stroke="#808080" data-option="gun" /><path d="M -141.12896509547883 120.8357402150051 L -140.3610159030477 115.5056131960829 L -136.89691428790996 117.5056131960829 Z" fill="#808080" data-option="gun" /><path d="M 36.94708324792773 -181.3636724023338 L -75.16698872766108 163.68796120261712" stroke="#808080" data-option="gun" /><path d="M -76.71207369953581 168.44324378409289 L -77.06910176025137 163.06992721386723 L -73.26487569507076 164.305995191367 Z" fill="#808080" data-option="gun" /></svg>